<?xml version="1.0" encoding="utf-8"?><svg viewBox="0 0 34 30" xmlns="http://www.w3.org/2000/svg" xmlns:xlink="http://www.w3.org/1999/xlink"><style>:root>svg{display:none}:root>svg:target{display:block}</style><svg fill="none" viewBox="0 0 34 30" id="phone" xmlns="http://www.w3.org/2000/svg"><g filter="url(#afilter0_d_0_1835)"><path d="M23.943 16.68l-.257.258c-1.312 1.312-3.804 1.614-5.392.653l-.108-.065-.116-.05c-.142-.062-.5-.255-1.038-.617-.958-.642-2.034-1.526-3.195-2.687-1.162-1.162-2.045-2.237-2.688-3.195-.361-.54-.555-.896-.616-1.038l-.056-.13-.074-.118c-.965-1.542-.654-4.047.67-5.37l.27-.27c.298-.3.656-.279.916.05l1.469 1.857c.362.458.315 1.255-.103 1.673a2.3 2.3 0 00.01 3.243l3.5 3.5a2.303 2.303 0 003.254-.002l.072-.072c.408-.408 1.172-.445 1.62-.079l1.81 1.484c.339.277.359.669.052.976z" fill="url(#apaint0_linear_0_1835)"/></g><defs><linearGradient id="apaint0_linear_0_1835" x1="2.68" y1="10.997" x2="16.994" y2="25.317" gradientUnits="userSpaceOnUse"><stop stop-color="#E9C6A4"/><stop offset="1" stop-color="#CE946B"/></linearGradient><filter id="afilter0_d_0_1835" x=".84" y="-3.16" width="32.32" height="32.315" filterUnits="userSpaceOnUse" color-interpolation-filters="sRGB"><feFlood flood-opacity="0" result="BackgroundImageFix"/><feColorMatrix in="SourceAlpha" values="0 0 0 0 0 0 0 0 0 0 0 0 0 0 0 0 0 0 127 0" result="hardAlpha"/><feOffset dy="2"/><feGaussianBlur stdDeviation="4.5"/><feColorMatrix values="0 0 0 0 1 0 0 0 0 0.549398 0 0 0 0 0.230869 0 0 0 1 0"/><feBlend in2="BackgroundImageFix" result="effect1_dropShadow_0_1835"/><feBlend in="SourceGraphic" in2="effect1_dropShadow_0_1835" result="shape"/></filter></defs></svg><svg fill="none" viewBox="0 0 15 17" id="phone2" xmlns="http://www.w3.org/2000/svg"><path fill-rule="evenodd" clip-rule="evenodd" d="M8.353 15.116c-2.04-1.055-3.828-2.546-5.313-4.44C1.817 9.109.993 7.641.447 6.06.091 5.04-.046 4.193.013 3.398c.05-.636.29-1.185.715-1.638L1.895.516C2.228.176 2.609 0 3.005 0c.4 0 .777.176 1.099.513.212.21.427.442.633.668l.009.01c.103.113.203.223.31.337l.929.991c.34.36.518.776.518 1.198 0 .423-.181.839-.518 1.198-.097.104-.194.207-.287.31-.265.29-.54.586-.833.868.209.516.508 1.022.955 1.625.882 1.154 1.806 2.053 2.823 2.742.103.07.218.133.343.2.1.053.206.11.31.172l1.116-1.191c.328-.35.711-.536 1.11-.536.4 0 .78.187 1.099.54l1.875 2c.67.715.67 1.654.006 2.392-.143.16-.293.316-.44.466l-.044.046c-.199.206-.39.403-.558.62-.003.006-.01.013-.012.016-.509.59-1.133.876-1.91.876-.069 0-.135-.003-.203-.007h-.009c-1.157-.08-2.196-.546-2.973-.938zM1.271 2.336c-.3.32-.459.69-.496 1.132-.05.669.071 1.404.393 2.32.518 1.49 1.3 2.881 2.464 4.376 1.414 1.803 3.117 3.224 5.058 4.226.714.363 1.666.789 2.69.859.052.003.108.006.161.006.553 0 .98-.193 1.339-.605.195-.249.409-.47.616-.685l.036-.038c.147-.15.284-.292.415-.442.38-.423.384-.855.01-1.255l-1.882-2.003c-.122-.14-.315-.296-.552-.296-.194 0-.39.103-.571.296L9.785 11.47c-.053.057-.215.227-.465.227a.62.62 0 01-.32-.094l-.017-.01a3.775 3.775 0 00-.343-.2c-.023-.011-.045-.024-.068-.036-.114-.062-.232-.125-.344-.203-1.086-.735-2.071-1.69-3.007-2.922-.522-.699-.855-1.284-1.096-1.9a.238.238 0 00-.004-.013l-.005-.014c-.062-.2-.103-.462.156-.738l.016-.017a17.05 17.05 0 00.86-.892c.05-.051.097-.104.146-.156l.145-.157c.193-.206.293-.416.293-.622 0-.206-.1-.416-.293-.622l-.93-.992-.162-.176-.162-.177-.084-.09c-.181-.197-.353-.383-.534-.562-.178-.193-.371-.29-.562-.29-.193 0-.393.097-.574.283l-1.16 1.238z" fill="#fff"/></svg></svg>