<svg width="19" height="37" viewBox="0 0 19 37" fill="none" xmlns="http://www.w3.org/2000/svg">
<rect x="0.5" y="0.5" width="18" height="26" rx="9" stroke="white"/>
<path d="M9.5 8V10.5" stroke="white"/>
<path d="M9.3033 36.0104L8.94975 36.364L9.3033 36.7175L9.65685 36.364L9.3033 36.0104ZM4 30.7071L3.64645 30.3536L3.29289 30.7071L3.64645 31.0607L4 30.7071ZM9.5052 35.8085L9.85876 35.455L9.5052 35.1014L9.15165 35.455L9.5052 35.8085ZM9.70711 36.0104L9.35355 36.364L9.70711 36.7175L10.0607 36.364L9.70711 36.0104ZM15.0104 30.7071L15.364 31.0607L15.7175 30.7071L15.364 30.3536L15.0104 30.7071ZM14.3033 30L14.6569 29.6464L14.3033 29.2929L13.9497 29.6464L14.3033 30ZM9.5052 34.7981L9.15165 35.1517L9.5052 35.5052L9.85876 35.1517L9.5052 34.7981ZM4.70711 30L5.06066 29.6464L4.70711 29.2929L4.35355 29.6464L4.70711 30ZM9.65685 35.6569L4.35355 30.3536L3.64645 31.0607L8.94975 36.364L9.65685 35.6569ZM9.15165 35.455L8.94975 35.6569L9.65685 36.364L9.85876 36.1621L9.15165 35.455ZM9.15165 36.1621L9.35355 36.364L10.0607 35.6569L9.85876 35.455L9.15165 36.1621ZM10.0607 36.364L15.364 31.0607L14.6569 30.3536L9.35355 35.6569L10.0607 36.364ZM15.364 30.3536L14.6569 29.6464L13.9497 30.3536L14.6569 31.0607L15.364 30.3536ZM13.9497 29.6464L9.15165 34.4445L9.85876 35.1517L14.6569 30.3536L13.9497 29.6464ZM4.35355 30.3536L9.15165 35.1517L9.85876 34.4445L5.06066 29.6464L4.35355 30.3536ZM4.35355 31.0607L5.06066 30.3536L4.35355 29.6464L3.64645 30.3536L4.35355 31.0607Z" fill="white"/>
</svg>
