<svg width="17" height="22" viewBox="0 0 17 22" fill="none" xmlns="http://www.w3.org/2000/svg">
<path fill-rule="evenodd" clip-rule="evenodd" d="M15.0412 8.67644H15.0712C16.0132 8.67644 16.7843 9.50298 16.7866 10.5305L16.7871 10.7757C16.7911 12.5522 16.7926 13.2277 16.7904 14.9335C16.7901 15.2322 16.7907 15.5623 16.7915 15.935C16.7923 16.3932 16.7934 16.9159 16.7929 17.5241C16.7906 19.9885 14.974 21.9956 12.7335 21.9956V21.9996H8.31461C6.8357 21.9996 5.47161 21.1125 4.75464 19.6905L0.833561 11.9096C0.755668 11.7549 0.792777 11.5652 0.922832 11.4539L1.32612 11.1089C1.79173 10.6622 2.4154 10.4345 3.0494 10.4793C3.6967 10.5283 4.29499 10.8527 4.70143 11.3751L5.16494 11.9562L5.17281 3.50108C5.17334 2.47197 5.94597 1.63477 6.88961 1.63477C7.8343 1.63477 8.61096 2.47251 8.61096 3.50234V7.76389C8.89067 7.54054 9.23568 7.42181 9.58926 7.42742H9.62112C10.2808 7.42742 10.8546 7.83292 11.1406 8.43069C11.4517 8.0962 11.8805 7.90592 12.3295 7.90267C13.0621 7.90267 13.6875 8.4081 13.9336 9.11122C14.2376 8.82914 14.6325 8.67409 15.0412 8.67644ZM16.0674 15.6858C16.0677 15.4118 16.068 15.1619 16.0682 14.931L16.0682 14.9039C16.0705 13.1434 16.0713 12.4833 16.067 10.5314C16.0656 9.91156 15.6191 9.41661 15.0712 9.41661H15.0412C14.492 9.41661 14.033 9.90324 14.033 10.525V11.4221C14.033 11.6264 13.8725 11.7921 13.6745 11.7921C13.4766 11.7921 13.316 11.6264 13.316 11.4221V9.76555C13.316 9.14356 12.8809 8.63795 12.3318 8.63795C11.7795 8.63795 11.3444 9.14374 11.3444 9.76555V11.5214C11.3444 11.7258 11.1839 11.8915 10.9859 11.8915C10.7879 11.8915 10.6274 11.7258 10.6274 11.5214V9.28343C10.6274 8.66181 10.1704 8.16758 9.62111 8.16758H9.58926C9.05451 8.16758 8.61096 8.63596 8.61096 9.23536V11.7549C8.61096 11.9593 8.45045 12.125 8.25247 12.125C8.0545 12.125 7.89399 11.9593 7.89399 11.7549V9.30909C7.89399 9.30486 7.89378 9.30055 7.89356 9.29621C7.89334 9.29183 7.89312 9.28743 7.89312 9.28307C7.89312 9.2729 7.89334 9.26278 7.89356 9.25271C7.89377 9.24272 7.89399 9.23279 7.89399 9.22289V3.50234C7.89399 2.88072 7.43889 2.37475 6.88996 2.37475C6.34103 2.37475 5.88593 2.88018 5.88558 3.50144L5.8791 12.9891C5.8791 13.1453 5.78388 13.2848 5.6414 13.3373C5.49891 13.3899 5.33963 13.3446 5.2437 13.2237L4.14638 11.8453C3.86474 11.4808 3.44919 11.2535 2.99881 11.2179C2.55823 11.188 2.12553 11.3485 1.80399 11.661C1.80226 11.6625 1.80054 11.6642 1.79881 11.6658C1.79596 11.6686 1.79309 11.6713 1.79016 11.6738L1.60321 11.8348L5.39091 19.3486C5.98378 20.5247 7.10421 21.2592 8.31479 21.2592H12.7125C14.5594 21.2592 16.0635 19.5819 16.0654 17.525C16.0661 16.8045 16.0668 16.2025 16.0674 15.6858Z" fill="white"/>
<path d="M4.03402 3.66251C4.23199 3.66251 4.3925 3.4968 4.3925 3.29243C4.39828 1.88023 5.50891 0.738718 6.87668 0.738718C8.24462 0.738718 9.35507 1.88023 9.36085 3.29243C9.36085 3.4968 9.52136 3.66251 9.71933 3.66251C9.9173 3.66251 10.0778 3.4968 10.0778 3.29243C10.0712 1.47202 8.64003 0 6.87668 0C5.11349 0 3.68219 1.47202 3.67554 3.29243C3.67554 3.4968 3.83605 3.66251 4.03402 3.66251Z" fill="white"/>
</svg>
